<svg xmlns="http://www.w3.org/2000/svg" version="1.1" xmlns:xlink="http://www.w3.org/1999/xlink" xmlns:svgjs="http://svgjs.com/svgjs" width="512" height="512" x="0" y="0" viewBox="0 0 24 24" style="enable-background:new 0 0 512 512" xml:space="preserve" class=""><g><g xmlns="http://www.w3.org/2000/svg" clip-rule="evenodd" fill="rgb(0,0,0)" fill-rule="evenodd"><path d="m5.34876 16.4836c-1.18145.7463-1.74842 1.6479-1.74842 2.4377 0 .3795.12565.6633.35881.9053.25094.2605.65396.4984 1.23539.6934 1.17046.3925 2.83672.5383 4.7278.5383 1.90026 0 3.56566-.1512 4.73256-.5482.5795-.1971.981-.437 1.2311-.6991.2328-.244.3583-.5299.3583-.9107 0-.7862-.5685-1.6827-1.7539-2.4253-1.1617-.7277-2.7894-1.2147-4.56806-1.2147-1.78835 0-3.41508.4915-4.57358 1.2233zm-.80108-1.2681c1.41875-.8962 3.32801-1.4552 5.37466-1.4552 2.03526 0 3.94366.5535 5.36436 1.4435 1.3972.8752 2.4576 2.1737 2.4576 3.6965 0 .7737-.2791 1.4285-.773 1.9462-.4767.4996-1.1242.8425-1.8333 1.0837-1.4103.4798-3.2809.6281-5.21566.6281-1.92292 0-3.79265-.1427-5.2047-.6162-.70982-.238-1.35967-.5775-1.83879-1.0748-.49691-.5159-.77851-1.1705-.77851-1.946 0-1.5202 1.05153-2.8241 2.44734-3.7058z" fill="#000000" data-original="#000000" class=""></path><path d="m4.63943 6.68165c.00074-2.9177 2.36635-5.28165 5.283-5.28165 2.91707 0 5.28297 2.36468 5.28297 5.283 0 2.91721-2.3658 5.283-5.28297 5.283h-.032-.0027c-2.90763-.0105-5.25806-2.37663-5.2483-5.28435zm5.283-3.78165c-2.08889 0-3.783 1.69332-3.783 3.783v.00271c-.0075 2.07924 1.67311 3.77209 3.75245 3.78029h.03055c2.08877 0 3.78297-1.69421 3.78297-3.783 0-2.08968-1.6941-3.783-3.78297-3.783z" fill="#000000" data-original="#000000" class=""></path><path d="m19.1313 7.3791c.4143 0 .75.33579.75.75v4.01c0 .4142-.3357.75-.75.75-.4142 0-.75-.3358-.75-.75v-4.01c0-.41421.3358-.75.75-.75z" fill="#000000" data-original="#000000" class=""></path><path d="m16.3376 10.1339c0-.41421.3358-.75.75-.75h4.09c.4143 0 .75.33579.75.75 0 .4142-.3357.75-.75.75h-4.09c-.4142 0-.75-.3358-.75-.75z" fill="#000000" data-original="#000000" class=""></path></g></g></svg>
