<svg viewBox="0 0 24 24" style="enable-background:new 0 0 512 512" xml:space="preserve" class=""><g transform="matrix(-1,0,0,1,24.010090112686157,0)"><g id="Line"><path d="m21.73 17.12a10.93 10.93 0 0 0 1.15-6.77 11 11 0 1 0 -12.53 12.53 11.59 11.59 0 0 0 1.65.12 10.89 10.89 0 0 0 5.11-1.27l2.95.79a2 2 0 0 0 1.94-.52 2 2 0 0 0 .52-1.93zm-1.94-.63a1 1 0 0 0 -.1.76l.9 3.34-3.34-.9a1 1 0 0 0 -.76.1 8.9 8.9 0 0 1 -5.85 1.11 9 9 0 0 1 1.36-17.9 7.32 7.32 0 0 1 .81 0 9 9 0 0 1 7 13.45z" fill="#000000" data-original="#000000" class=""></path><circle cx="7.5" cy="12" r="1.5" fill="#000000" data-original="#000000" class=""></circle><circle cx="12" cy="12" r="1.5" fill="#000000" data-original="#000000" class=""></circle><circle cx="16.5" cy="12" r="1.5" fill="#000000" data-original="#000000" class=""></circle></g></g></svg>
