<svg xmlns="http://www.w3.org/2000/svg" version="1.1" xmlns:xlink="http://www.w3.org/1999/xlink" xmlns:svgjs="http://svgjs.com/svgjs" width="512" height="512" x="0" y="0" viewBox="0 0 32 32" style="enable-background:new 0 0 512 512" xml:space="preserve" class=""><g><g xmlns="http://www.w3.org/2000/svg" id="Layer_2" data-name="Layer 2"><path d="M26.79,3.5H23.27V3a1,1,0,0,0-2,0v.5H10.73V3a1,1,0,0,0-2,0v.5H5.21A4.22,4.22,0,0,0,1,7.71V25.29A4.22,4.22,0,0,0,5.21,29.5H26.79A4.22,4.22,0,0,0,31,25.29V7.71A4.22,4.22,0,0,0,26.79,3.5ZM5.21,5.5H8.73V6a1,1,0,0,0,2,0V5.5H21.27V6a1,1,0,0,0,2,0V5.5h3.52A2.21,2.21,0,0,1,29,7.71v2.37H3V7.71A2.21,2.21,0,0,1,5.21,5.5Zm21.58,22H5.21A2.21,2.21,0,0,1,3,25.29V12.08H29V25.29A2.21,2.21,0,0,1,26.79,27.5Z" fill="#000000" data-original="#000000" class=""></path><path d="M20,16H12a1,1,0,0,0,0,2h8a1,1,0,0,0,0-2Z" fill="#000000" data-original="#000000" class=""></path><path d="M20,21.37H12a1,1,0,0,0,0,2h8a1,1,0,0,0,0-2Z" fill="#000000" data-original="#000000" class=""></path></g></g></svg>
