<svg xmlns="http://www.w3.org/2000/svg" xmlns:xlink="http://www.w3.org/1999/xlink" xmlns:svgjs="http://svgjs.com/svgjs" version="1.1" x="0" y="0" style="enable-background:new 0 0 512 512" xml:space="preserve" class="" viewBox="2 2 20 20"><g transform="matrix(1,0,0,1,0,0)"><g xmlns="http://www.w3.org/2000/svg" clip-rule="evenodd" fill="rgb(0,0,0)" fill-rule="evenodd"><path d="m6.5 3.57143c-.71723 0-1.72366.17113-2.40946.30928-.08072.01625-.14568.07971-.15987.17055-.1372.87867-.34243 2.38077-.34243 3.44874s.20523 2.5701.34243 3.4487c.01419.0909.07915.1543.15987.1706.6858.1381 1.69223.3093 2.40946.3093s1.72366-.1712 2.40946-.3093c.08072-.0163.14568-.0797.15987-.1706.1372-.8786.34244-2.38073.34244-3.4487s-.20524-2.57007-.34244-3.44874c-.01419-.09084-.07915-.1543-.15987-.17055-.6858-.13815-1.69223-.30928-2.40946-.30928zm-2.72631-1.23056c.68843-.13868 1.8337-.34087 2.72631-.34087s2.03788.20219 2.72631.34087c.74239.14954 1.29859.73995 1.41259 1.47046.137.87693.3611 2.4868.3611 3.68867s-.2241 2.8117-.3611 3.6887c-.114.7305-.6702 1.3209-1.41259 1.4704-.68843.1387-1.8337.3409-2.72631.3409s-2.03788-.2022-2.72631-.3409c-.74239-.1495-1.29856-.7399-1.41263-1.4704-.13694-.877-.36106-2.48683-.36106-3.6887s.22412-2.81174.36106-3.68867c.11407-.73051.67024-1.32092 1.41263-1.47046z" fill="#000000" data-original="#000000" class=""/><path d="m17.5 20.4286c-.7172 0-1.7237-.1712-2.4095-.3093-.0807-.0163-.1456-.0797-.1598-.1706-.1372-.8786-.3425-2.3807-.3425-3.4487s.2053-2.5701.3425-3.4487c.0142-.0909.0791-.1543.1598-.1706.6858-.1381 1.6923-.3093 2.4095-.3093s1.7237.1712 2.4095.3093c.0807.0163.1456.0797.1598.1706.1372.8786.3425 2.3807.3425 3.4487s-.2053 2.5701-.3425 3.4487c-.0142.0909-.0791.1543-.1598.1706-.6858.1381-1.6923.3093-2.4095.3093zm-2.7263 1.2305c.6884.1387 1.8337.3409 2.7263.3409s2.0379-.2022 2.7263-.3409c.7424-.1495 1.2986-.7399 1.4126-1.4704.137-.877.3611-2.4868.3611-3.6887s-.2241-2.8117-.3611-3.6887c-.114-.7305-.6702-1.3209-1.4126-1.4704-.6884-.1387-1.8337-.3409-2.7263-.3409s-2.0379.2022-2.7263.3409c-.7424.1495-1.2986.7399-1.4126 1.4704-.137.877-.3611 2.4868-.3611 3.6887s.2241 2.8117.3611 3.6887c.114.7305.6702 1.3209 1.4126 1.4704z" fill="#000000" data-original="#000000" class=""/><path d="m6.5 16.6154c-.76112 0-1.83759.1811-2.51684.314-.07575.0149-.12075.0647-.13541.1175-.1302.4689-.25951 1.0525-.25951 1.4531s.12931.9842.25951 1.4531c.01466.0528.05966.1026.13541.1175.67925.1329 1.75572.314 2.51684.314s1.83759-.1811 2.51684-.314c.07575-.0149.12075-.0647.13541-.1175.1302-.4689.25952-1.0525.25952-1.4531s-.12932-.9842-.25952-1.4531c-.01466-.0528-.05966-.1026-.13541-.1175-.67925-.1329-1.75572-.314-2.51684-.314zm-2.81699-1.2722c.67885-.1329 1.88864-.3432 2.81699-.3432s2.13814.2103 2.81699.3432c.64258.1257 1.17961.6015 1.36371 1.2647.1327.4778.3193 1.2491.3193 1.8921s-.1866 1.4143-.3193 1.8921c-.1841.6632-.72113 1.139-1.36371 1.2647-.67885.1329-1.88864.3432-2.81699.3432s-2.13814-.2103-2.81699-.3432c-.64258-.1257-1.17957-.6015-1.36372-1.2647-.13268-.4778-.31929-1.2491-.31929-1.8921s.18661-1.4143.31929-1.8921c.18415-.6632.72114-1.139 1.36372-1.2647z" fill="#000000" data-original="#000000" class=""/><path d="m17.5 7.38462c-.7611 0-1.8376-.18109-2.5168-.31405-.0758-.01482-.1208-.06465-.1355-.11745-.1301-.46892-.2595-1.05255-.2595-1.45312s.1294-.9842.2595-1.45312c.0147-.0528.0597-.10263.1355-.11745.6792-.13296 1.7557-.31405 2.5168-.31405s1.8376.18109 2.5168.31405c.0758.01482.1208.06465.1355.11745.1301.46892.2595 1.05255.2595 1.45312s-.1294.9842-.2595 1.45312c-.0147.0528-.0597.10263-.1355.11745-.6792.13296-1.7557.31405-2.5168.31405zm-2.817 1.27223c.6789.13288 1.8887.34315 2.817.34315s2.1381-.21027 2.817-.34315c.6426-.12578 1.1796-.60151 1.3637-1.26471.1327-.47787.3193-1.24915.3193-1.89214s-.1866-1.41427-.3193-1.89214c-.1841-.6632-.7211-1.13893-1.3637-1.26471-.6789-.13288-1.8887-.34315-2.817-.34315s-2.1381.21027-2.817.34315c-.6426.12578-1.1796.60151-1.3637 1.26471-.1327.47787-.3193 1.24915-.3193 1.89214s.1866 1.41427.3193 1.89214c.1841.6632.7211 1.13893 1.3637 1.26471z" fill="#000000" data-original="#000000" class=""/></g></g></svg>