<svg viewBox="0 0 512 512"><g>
<g>
<g>
<path d="M409.631,81.92c-7.455,0-14.459,2.007-20.48,5.509V81.92c0-22.569-18.371-40.96-40.96-40.96    c-7.455,0-14.459,2.007-20.48,5.509V40.96c0-22.569-18.371-40.96-40.96-40.96c-22.589,0-40.96,18.391-40.96,40.96v5.509    c-6.021-3.502-13.025-5.509-20.48-5.509c-22.589,0-40.96,18.391-40.96,40.96v213.197c0,2.724-2.396,5.12-5.12,5.12    c-1.434,0-2.662-0.512-2.54-0.205l-40.059-57.037c-12.616-18.084-39.014-23.101-57.467-10.342    c-9.114,6.328-15.176,15.893-17.121,26.89c-1.905,10.916,0.512,21.873,6.738,30.7l107.069,156.201    C203.029,486.892,251.177,512,301.496,512c82.207,0,149.094-66.867,149.094-149.094V122.88    C450.591,100.311,432.22,81.92,409.631,81.92z M301.496,491.52c-43.602,0-85.217-21.647-108.687-56.566L85.596,278.569    c-3.154-4.485-4.342-9.953-3.379-15.483c0.983-5.591,4.055-10.445,8.622-13.619c3.502-2.417,7.598-3.707,11.796-3.707    c6.984,0,13.23,3.256,17.203,8.97l34.488,49.213l6.554,9.032c4.588,4.915,11.284,7.741,18.35,7.741    c14.111,0,25.6-11.469,25.6-25.6V81.92c0-11.284,9.196-20.48,20.48-20.48c11.284,0,20.48,9.195,20.48,20.48v153.6    c0,5.673,4.588,10.24,10.24,10.24s10.24-4.567,10.24-10.24V40.96c0-11.284,9.196-20.48,20.48-20.48    c11.284,0,20.48,9.196,20.48,20.48v194.56c0,5.673,4.588,10.24,10.24,10.24c5.652,0,10.24-4.567,10.24-10.24V81.92    c0-11.284,9.195-20.48,20.48-20.48s20.48,9.195,20.48,20.48V256c0,5.673,4.588,10.24,10.24,10.24c5.652,0,10.24-4.567,10.24-10.24    V122.88c0-11.284,9.195-20.48,20.48-20.48s20.48,9.195,20.48,20.48v240.026h0C430.111,433.828,372.419,491.52,301.496,491.52z" fill="#000000" data-original="#000000"></path>
	</g>
</g>

</g>
</svg>
