<svg xmlns="http://www.w3.org/2000/svg" xmlns:xlink="http://www.w3.org/1999/xlink" xmlns:svgjs="http://svgjs.com/svgjs" version="1.1" x="0" y="0" style="enable-background:new 0 0 512 512" xml:space="preserve" class="" viewBox="1 2 22 21"><g><g xmlns="http://www.w3.org/2000/svg" id="Layer_2" data-name="Layer 2"><path d="M8,13a1,1,0,0,1,0-2H22a1,1,0,0,1,0,2Z" fill="#000000" data-original="#000000" class=""/><path d="M22,12.75H8a.75.75,0,0,1,0-1.5H22a.75.75,0,0,1,0,1.5Z" fill="#000000" data-original="#000000" class=""/><path d="M18,17a1,1,0,0,1-.708-1.706L20.577,12,17.292,8.707a1,1,0,1,1,1.416-1.413l3.989,4a1,1,0,0,1,0,1.413l-3.99,4A.994.994,0,0,1,18,17Z" fill="#000000" data-original="#000000" class=""/><path d="M18,16.75a.75.75,0,0,1-.531-1.28L20.93,12,17.469,8.53a.75.75,0,0,1,1.062-1.059l3.99,4a.751.751,0,0,1,0,1.06l-3.99,4A.748.748,0,0,1,18,16.75Z" fill="#000000" data-original="#000000" class=""/><path d="M4,23a3,3,0,0,1-3-3V5A3,3,0,0,1,4,2h9a3,3,0,0,1,3,3V7a1,1,0,0,1-2,0V5a1,1,0,0,0-1-1H4A1,1,0,0,0,3,5V20a1,1,0,0,0,1,1h9a1,1,0,0,0,1-1V17a1,1,0,0,1,2,0v3a3,3,0,0,1-3,3Z" fill="#000000" data-original="#000000" class=""/><path d="M13,22.75H4A2.752,2.752,0,0,1,1.25,20V5A2.752,2.752,0,0,1,4,2.25h9A2.752,2.752,0,0,1,15.75,5V7a.75.75,0,0,1-1.5,0V5A1.252,1.252,0,0,0,13,3.75H4A1.252,1.252,0,0,0,2.75,5V20A1.252,1.252,0,0,0,4,21.25h9A1.252,1.252,0,0,0,14.25,20V17a.75.75,0,0,1,1.5,0v3A2.752,2.752,0,0,1,13,22.75Z" fill="#000000" data-original="#000000" class=""/></g></g></svg>