<svg viewBox="0 0 512 512" ><g><path d="m316 60c0-33.084-26.916-60-60-60s-60 26.916-60 60 26.916 60 60 60 60-26.916 60-60zm-60 30c-16.542 0-30-13.458-30-30s13.458-30 30-30 30 13.458 30 30-13.458 30-30 30z" fill="#000000" data-original="#000000" class=""></path><path xmlns="http://www.w3.org/2000/svg" d="m16 210v151h32.687l30 151h54.626l30-151h35.374l30 151h54.626l30-151h35.374l30 151h54.626l30-151h32.687v-151c0-49.626-40.374-90-90-90-31.271 0-58.863 16.034-75 40.31-16.137-24.276-43.729-40.31-75-40.31s-58.863 16.034-75 40.31c-16.137-24.276-43.729-40.31-75-40.31-49.626 0-90 40.374-90 90zm390-60c33.084 0 60 26.916 60 60v121h-27.313l-30 151h-5.374l-30-151h-27.313v-121c0-33.084 26.916-60 60-60zm-150 0c33.084 0 60 26.916 60 60v121h-27.313l-30 151h-5.374l-30-151h-27.313v-121c0-33.084 26.916-60 60-60zm-210 60c0-33.084 26.916-60 60-60s60 26.916 60 60v121h-27.313l-30 151h-5.374l-30-151h-27.313z" fill="#000000" data-original="#000000" class=""></path><path xmlns="http://www.w3.org/2000/svg" d="m166 60c0-33.084-26.916-60-60-60s-60 26.916-60 60 26.916 60 60 60 60-26.916 60-60zm-60 30c-16.542 0-30-13.458-30-30s13.458-30 30-30 30 13.458 30 30-13.458 30-30 30z" fill="#000000" data-original="#000000" class=""></path><path xmlns="http://www.w3.org/2000/svg" d="m466 60c0-33.084-26.916-60-60-60s-60 26.916-60 60 26.916 60 60 60 60-26.916 60-60zm-60 30c-16.542 0-30-13.458-30-30s13.458-30 30-30 30 13.458 30 30-13.458 30-30 30z" fill="#000000" data-original="#000000" class=""></path></g></svg>
