<svg xmlns="http://www.w3.org/2000/svg" viewBox="1.25 4.53 21.5 14.94"><g><g><path d="m12 9.594c-1.518 0-2.75 1.232-2.75 2.75s1.232 2.75 2.75 2.75 2.75-1.232 2.75-2.75-1.232-2.75-2.75-2.75zm0 1.5c.69 0 1.25.56 1.25 1.25s-.56 1.25-1.25 1.25-1.25-.56-1.25-1.25.56-1.25 1.25-1.25z" fill="#000000" data-original="#000000" class=""/><path d="m17 4.531c-1.518 0-2.75 1.232-2.75 2.75s1.232 2.75 2.75 2.75 2.75-1.232 2.75-2.75-1.232-2.75-2.75-2.75zm0 1.5c.69 0 1.25.56 1.25 1.25s-.56 1.25-1.25 1.25-1.25-.56-1.25-1.25.56-1.25 1.25-1.25z" fill="#000000" data-original="#000000" class=""/><path d="m7 4.531c-1.518 0-2.75 1.232-2.75 2.75s1.232 2.75 2.75 2.75 2.75-1.232 2.75-2.75-1.232-2.75-2.75-2.75zm0 1.5c.69 0 1.25.56 1.25 1.25s-.56 1.25-1.25 1.25-1.25-.56-1.25-1.25.56-1.25 1.25-1.25z" fill="#000000" data-original="#000000" class=""/><path d="m7.589 19.183.674-.853c.616-.781 1.556-1.236 2.55-1.236h2.374c.994 0 1.934.455 2.55 1.236 0 0 .674.853.674.853.257.325.729.381 1.054.124.325-.256.38-.728.124-1.053l-.674-.854c-.901-1.141-2.275-1.806-3.728-1.806-.755 0-1.619 0-2.374 0-1.453 0-2.827.665-3.728 1.806l-.674.854c-.256.325-.201.797.124 1.053.325.257.797.201 1.054-.124z" fill="#000000" data-original="#000000" class=""/><path d="m17 12.031h1.187c.994 0 1.934.456 2.55 1.236 0 0 .674.854.674.854.257.325.729.38 1.054.124.325-.257.38-.729.124-1.053l-.674-.854c-.901-1.141-2.275-1.807-3.728-1.807-.378 0-.782 0-1.187 0-.414 0-.75.336-.75.75s.336.75.75.75z" fill="#000000" data-original="#000000" class=""/><path d="m7 10.531c-.405 0-.809 0-1.187 0-1.453 0-2.827.666-3.728 1.807l-.674.854c-.256.324-.201.796.124 1.053.325.256.797.201 1.054-.124l.674-.854c.616-.78 1.556-1.236 2.55-1.236h1.187c.414 0 .75-.336.75-.75s-.336-.75-.75-.75z" fill="#000000" data-original="#000000" class=""/></g></g></svg>