<svg xmlns="http://www.w3.org/2000/svg" version="1.1" xmlns:xlink="http://www.w3.org/1999/xlink" xmlns:svgjs="http://svgjs.com/svgjs" width="512" height="512" x="0" y="0" viewBox="0 0 384 384" style="enable-background:new 0 0 512 512" xml:space="preserve" class=""><g><path xmlns="http://www.w3.org/2000/svg" d="m176 288c0 8.832031 7.167969 16 16 16s16-7.167969 16-16v-192c0-8.832031-7.167969-16-16-16s-16 7.167969-16 16zm0 0" fill="#000000" data-original="#000000" class=""></path><path xmlns="http://www.w3.org/2000/svg" d="m16 96c-8.832031 0-16 7.167969-16 16v160c0 8.832031 7.167969 16 16 16s16-7.167969 16-16v-160c0-8.832031-7.167969-16-16-16zm0 0" fill="#000000" data-original="#000000" class=""></path><path xmlns="http://www.w3.org/2000/svg" d="m152 256v-128c0-8.832031-7.167969-16-16-16s-16 7.167969-16 16v128c0 8.832031 7.167969 16 16 16s16-7.167969 16-16zm0 0" fill="#000000" data-original="#000000" class=""></path><path xmlns="http://www.w3.org/2000/svg" d="m80 240c8.832031 0 16-7.167969 16-16v-64c0-8.832031-7.167969-16-16-16s-16 7.167969-16 16v64c0 8.832031 7.167969 16 16 16zm0 0" fill="#000000" data-original="#000000" class=""></path><path xmlns="http://www.w3.org/2000/svg" d="m264 256v-128c0-8.832031-7.167969-16-16-16s-16 7.167969-16 16v128c0 8.832031 7.167969 16 16 16s16-7.167969 16-16zm0 0" fill="#000000" data-original="#000000" class=""></path><path xmlns="http://www.w3.org/2000/svg" d="m368 96c-8.832031 0-16 7.167969-16 16v160c0 8.832031 7.167969 16 16 16s16-7.167969 16-16v-160c0-8.832031-7.167969-16-16-16zm0 0" fill="#000000" data-original="#000000" class=""></path><path xmlns="http://www.w3.org/2000/svg" d="m304 144c-8.832031 0-16 7.167969-16 16v64c0 8.832031 7.167969 16 16 16s16-7.167969 16-16v-64c0-8.832031-7.167969-16-16-16zm0 0" fill="#000000" data-original="#000000" class=""></path><path xmlns="http://www.w3.org/2000/svg" d="m176 368c0 8.832031 7.167969 16 16 16s16-7.167969 16-16v-16c0-8.832031-7.167969-16-16-16s-16 7.167969-16 16zm0 0" fill="#000000" data-original="#000000" class=""></path><path xmlns="http://www.w3.org/2000/svg" d="m192 48c8.832031 0 16-7.167969 16-16v-16c0-8.832031-7.167969-16-16-16s-16 7.167969-16 16v16c0 8.832031 7.167969 16 16 16zm0 0" fill="#000000" data-original="#000000" class=""></path></g></svg>
